<svg xmlns="http://www.w3.org/2000/svg" viewBox="0 0 512.00 490.58" width="512" height="491" xmlns:c2pa="http://c2pa.org/manifest"><metadata><c2pa:manifest>AAAWgmp1bWIAAAAeanVtZGMycGEAEQAQgAAAqgA4m3EDYzJwYQAAABZcanVtYgAAAEdqdW1kYzJtYQARABCAAACqADibcQN1cm46YzJwYTo2YzhlNGRjMy0wN2Q2LTRlOGItODcwMC01MTQ1NDQwZjVhOGMAAAADl2p1bWIAAAApanVtZGMyYXMAEQAQgAAAqgA4m3EDYzJwYS5hc3NlcnRpb25zAAAAALxqdW1iAAAARGp1bWRjYm9yABEAEIAAAKoAOJtxE2MycGEuaW5ncmVkaWVudC52MwAAAAAYYzJzaLgiAkOrt+3XFN+O3X5+ijgAAABwY2JvcqNpZGM6Zm9ybWF0bWltYWdlL3N2Zyt4bWxqaW5zdGFuY2VJRHgseG1wOmlpZDo1YzMwNGI1ZC0xMDY0LTQ0YzUtYjRkZi04YzAyMjEwN2U4OTBscmVsYXRpb25zaGlwaHBhcmVudE9mAAAB4mp1bWIAAABBanVtZGNib3IAEQAQgAAAqgA4m3ETYzJwYS5hY3Rpb25zLnYyAAAAABhjMnNoF3aUWHo6y2e8+Hc1aOHPFgAAAZljYm9yomdhY3Rpb25zgqJmYWN0aW9ua2MycGEub3BlbmVkanBhcmFtZXRlcnOha2luZ3JlZGllbnRzgaJjdXJseC1zZWxmI2p1bWJmPWMycGEuYXNzZXJ0aW9ucy9jMnBhLmluZ3JlZGllbnQudjNkaGFzaFgg9zefw89/eH/DBeZSjm7mXJGFX8LOS3/gSqG642xSE9OkZmFjdGlvbngdY29tLmFudGhyb3BpYy5jbGF1ZGUucHJvdmlkZWRqcGFyYW1ldGVyc6F4H2NvbS5hbnRocm9waWMub3JpZ2luLWNvbmZpZGVuY2VndW5rbm93bmtkZXNjcmlwdGlvbnhmQ2xhdWRlIHByb3ZpZGVkIHRoaXMgZmlsZSBhdCB0aGUgcmVxdWVzdCBvZiBhIHVzZXIgYW5kIG1heSBoYXZlIGNyZWF0ZWQgb3IgbW9kaWZpZWQgdGhlIGZpbGUgY29udGVudHMubXNvZnR3YXJlQWdlbnShZG5hbWVmQ2xhdWRlcmFsbEFjdGlvbnNJbmNsdWRlZPUAAADIanVtYgAAAEBqdW1kY2JvcgARABCAAACqADibcRNjMnBhLmhhc2guZGF0YQAAAAAYYzJzaIjlsSZFVtDoQmodcLyLibUAAACAY2JvcqVjYWxnZnNoYTI1NmNwYWRNAAAAAAAAAAAAAAAAAGRoYXNoWCDySa9dL/GYJcusmDeWLTtbhomVe5NctVCwQql7zdqa+mRuYW1lbmp1bWJmIG1hbmlmZXN0amV4Y2x1c2lvbnOBomVzdGFydBicZmxlbmd0aBkeBAAAAj5qdW1iAAAAJ2p1bWRjMmNsABEAEIAAAKoAOJtxA2MycGEuY2xhaW0udjIAAAACD2Nib3KlY2FsZ2ZzaGEyNTZpc2lnbmF0dXJleE1zZWxmI2p1bWJmPS9jMnBhL3VybjpjMnBhOjZjOGU0ZGMzLTA3ZDYtNGU4Yi04NzAwLTUxNDU0NDBmNWE4Yy9jMnBhLnNpZ25hdHVyZWppbnN0YW5jZUlEeCx4bXA6aWlkOjhkMjQ3YWRkLTgxYWUtNDEwYy1iYjJlLTM2NmUyNGY2ZWUzMHJjcmVhdGVkX2Fzc2VydGlvbnODomN1cmx4LXNlbGYjanVtYmY9YzJwYS5hc3NlcnRpb25zL2MycGEuaW5ncmVkaWVudC52M2RoYXNoWCD3N5/Dz394f8MF5lKObuZckYVfws5Lf+BKobrjbFIT06JjdXJseCpzZWxmI2p1bWJmPWMycGEuYXNzZXJ0aW9ucy9jMnBhLmFjdGlvbnMudjJkaGFzaFggJV2aO97MAewptxHAYZN9OUNNvnvBoDbgWweyfThAUKaiY3VybHgpc2VsZiNqdW1iZj1jMnBhLmFzc2VydGlvbnMvYzJwYS5oYXNoLmRhdGFkaGFzaFggJmra1lwnFFYOkCiLFyKO0EfMFdx7h7U5TjSfMCtGfSp0Y2xhaW1fZ2VuZXJhdG9yX2luZm+jZG5hbWVvQW50aHJvcGljIEZpbGVzZ3ZlcnNpb25lMS4wLjBrc3BlY1ZlcnNpb25lMi40LjAAABA4anVtYgAAAChqdW1kYzJjcwARABCAAACqADibcQNjMnBhLnNpZ25hdHVyZQAAABAIY2JvctKEWQISogEmGCFZAgowggIGMIIBjaADAgECAhRA5aAK7sI50L64g/oGQgU9Z1UTADAKBggqhkjOPQQDAzBJMRcwFQYDVQQKEw5BbnRocm9waWMsIFBCQzEuMCwGA1UEAxMlQW50aHJvcGljIENvbnRlbnQgQ3JlZGVudGlhbHMgUm9vdCBDQTAeFw0yNjA4MDcxODQzNTZaFw0yODA4MDYxOTQzNTZaMEQxFzAVBgNVBAoTDkFudGhyb3BpYywgUEJDMSkwJwYDVQQDEyBBbnRocm9waWMgQ2xhdWRlIENvbnRlbnQgU2lnbmluZzBZMBMGByqGSM49AgEGCCqGSM49AwEHA0IABJh6CmvLUBgFFNU0vUKlOVtE6djd17L5SuwX0LemFisBM3dkd/3cyjxFA3Qo5S46fX0/ihY0VZ7mfb9KF703t5OjWDBWMA4GA1UdDwEB/wQEAwIHgDAVBgNVHSUEDjAMBgorBgEEAYPoXgIBMAwGA1UdEwEB/wQCMAAwHwYDVR0jBBgwFoAUzlHiBIFOZFsj+OPEz5o+nMHXXMIwCgYIKoZIzj0EAwMDZwAwZAIwMXMdFJ4BetLLVY7ORuE9noqbbAZOZn/aArXyTwFAZfKrPzxF2vPoJNf1+UCdg1XGAjBwX1zd9WGqYkqmL5SFqw1QySjr1zJfpJM9+1rdDwSPLMOPOjKuiXjoU/pUUeG9RwmhY3BhZFkNngAAAAAAAAAAAAAAAAAAAAAAAAAAAAAAAAAAAAAAAAAAAAAAAAAAAAAAAAAAAAAAAAAAAAAAAAAAAAAAAAAAAAAAAAAAAAAAAAAAAAAAAAAAAAAAAAAAAAAAAAAAAAAAAAAAAAAAAAAAAAAAAAAAAAAAAAAAAAAAAAAAAAAAAAAAAAAAAAAAAAAAAAAAAAAAAAAAAAAAAAAAAAAAAAAAAAAAAAAAAAAAAAAAAAAAAAAAAAAAAAAAAAAAAAAAAAAAAAAAAAAAAAAAAAAAAAAAAAAAAAAAAAAAAAAAAAAAAAAAAAAAAAAAAAAAAAAAAAAAAAAAAAAAAAAAAAAAAAAAAAAAAAAAAAAAAAAAAAAAAAAAAAAAAAAAAAAAAAAAAAAAAAAAAAAAAAAAAAAAAAAAAAAAAAAAAAAAAAAAAAAAAAAAAAAAAAAAAAAAAAAAAAAAAAAAAAAAAAAAAAAAAAAAAAAAAAAAAAAAAAAAAAAAAAAAAAAAAAAAAAAAAAAAAAAAAAAAAAAAAAAAAAAAAAAAAAAAAAAAAAAAAAAAAAAAAAAAAAAAAAAAAAAAAAAAAAAAAAAAAAAAAAAAAAAAAAAAAAAAAAAAAAAAAAAAAAAAAAAAAAAAAAAAAAAAAAAAAAAAAAAAAAAAAAAAAAAAAAAAAAAAAAAAAAAAAAAAAAAAAAAAAAAAAAAAAAAAAAAAAAAAAAAAAAAAAAAAAAAAAAAAAAAAAAAAAAAAAAAAAAAAAAAAAAAAAAAAAAAAAAAAAAAAAAAAAAAAAAAAAAAAAAAAAAAAAAAAAAAAAAAAAAAAAAAAAAAAAAAAAAAAAAAAAAAAAAAAAAAAAAAAAAAAAAAAAAAAAAAAAAAAAAAAAAAAAAAAAAAAAAAAAAAAAAAAAAAAAAAAAAAAAAAAAAAAAAAAAAAAAAAAAAAAAAAAAAAAAAAAAAAAAAAAAAAAAAAAAAAAAAAAAAAAAAAAAAAAAAAAAAAAAAAAAAAAAAAAAAAAAAAAAAAAAAAAAAAAAAAAAAAAAAAAAAAAAAAAAAAAAAAAAAAAAAAAAAAAAAAAAAAAAAAAAAAAAAAAAAAAAAAAAAAAAAAAAAAAAAAAAAAAAAAAAAAAAAAAAAAAAAAAAAAAAAAAAAAAAAAAAAAAAAAAAAAAAAAAAAAAAAAAAAAAAAAAAAAAAAAAAAAAAAAAAAAAAAAAAAAAAAAAAAAAAAAAAAAAAAAAAAAAAAAAAAAAAAAAAAAAAAAAAAAAAAAAAAAAAAAAAAAAAAAAAAAAAAAAAAAAAAAAAAAAAAAAAAAAAAAAAAAAAAAAAAAAAAAAAAAAAAAAAAAAAAAAAAAAAAAAAAAAAAAAAAAAAAAAAAAAAAAAAAAAAAAAAAAAAAAAAAAAAAAAAAAAAAAAAAAAAAAAAAAAAAAAAAAAAAAAAAAAAAAAAAAAAAAAAAAAAAAAAAAAAAAAAAAAAAAAAAAAAAAAAAAAAAAAAAAAAAAAAAAAAAAAAAAAAAAAAAAAAAAAAAAAAAAAAAAAAAAAAAAAAAAAAAAAAAAAAAAAAAAAAAAAAAAAAAAAAAAAAAAAAAAAAAAAAAAAAAAAAAAAAAAAAAAAAAAAAAAAAAAAAAAAAAAAAAAAAAAAAAAAAAAAAAAAAAAAAAAAAAAAAAAAAAAAAAAAAAAAAAAAAAAAAAAAAAAAAAAAAAAAAAAAAAAAAAAAAAAAAAAAAAAAAAAAAAAAAAAAAAAAAAAAAAAAAAAAAAAAAAAAAAAAAAAAAAAAAAAAAAAAAAAAAAAAAAAAAAAAAAAAAAAAAAAAAAAAAAAAAAAAAAAAAAAAAAAAAAAAAAAAAAAAAAAAAAAAAAAAAAAAAAAAAAAAAAAAAAAAAAAAAAAAAAAAAAAAAAAAAAAAAAAAAAAAAAAAAAAAAAAAAAAAAAAAAAAAAAAAAAAAAAAAAAAAAAAAAAAAAAAAAAAAAAAAAAAAAAAAAAAAAAAAAAAAAAAAAAAAAAAAAAAAAAAAAAAAAAAAAAAAAAAAAAAAAAAAAAAAAAAAAAAAAAAAAAAAAAAAAAAAAAAAAAAAAAAAAAAAAAAAAAAAAAAAAAAAAAAAAAAAAAAAAAAAAAAAAAAAAAAAAAAAAAAAAAAAAAAAAAAAAAAAAAAAAAAAAAAAAAAAAAAAAAAAAAAAAAAAAAAAAAAAAAAAAAAAAAAAAAAAAAAAAAAAAAAAAAAAAAAAAAAAAAAAAAAAAAAAAAAAAAAAAAAAAAAAAAAAAAAAAAAAAAAAAAAAAAAAAAAAAAAAAAAAAAAAAAAAAAAAAAAAAAAAAAAAAAAAAAAAAAAAAAAAAAAAAAAAAAAAAAAAAAAAAAAAAAAAAAAAAAAAAAAAAAAAAAAAAAAAAAAAAAAAAAAAAAAAAAAAAAAAAAAAAAAAAAAAAAAAAAAAAAAAAAAAAAAAAAAAAAAAAAAAAAAAAAAAAAAAAAAAAAAAAAAAAAAAAAAAAAAAAAAAAAAAAAAAAAAAAAAAAAAAAAAAAAAAAAAAAAAAAAAAAAAAAAAAAAAAAAAAAAAAAAAAAAAAAAAAAAAAAAAAAAAAAAAAAAAAAAAAAAAAAAAAAAAAAAAAAAAAAAAAAAAAAAAAAAAAAAAAAAAAAAAAAAAAAAAAAAAAAAAAAAAAAAAAAAAAAAAAAAAAAAAAAAAAAAAAAAAAAAAAAAAAAAAAAAAAAAAAAAAAAAAAAAAAAAAAAAAAAAAAAAAAAAAAAAAAAAAAAAAAAAAAAAAAAAAAAAAAAAAAAAAAAAAAAAAAAAAAAAAAAAAAAAAAAAAAAAAAAAAAAAAAAAAAAAAAAAAAAAAAAAAAAAAAAAAAAAAAAAAAAAAAAAAAAAAAAAAAAAAAAAAAAAAAAAAAAAAAAAAAAAAAAAAAAAAAAAAAAAAAAAAAAAAAAAAAAAAAAAAAAAAAAAAAAAAAAAAAAAAAAAAAAAAAAAAAAAAAAAAAAAAAAAAAAAAAAAAAAAAAAAAAAAAAAAAAAAAAAAAAAAAAAAAAAAAAAAAAAAAAAAAAAAAAAAAAAAAAAAAAAAAAAAAAAAAAAAAAAAAAAAAAAAAAAAAAAAAAAAAAAAAAAAAAAAAAAAAAAAAAAAAAAAAAAAAAAAAAAAAAAAAAAAAAAAAAAAAAAAAAAAAAAAAAAAAAAAAAAAAAAAAAAAAAAAAAAAAAAAAAAAAAAAAAAAAAAAAAAAAAAAAAAAAAAAAAAAAAAAAAAAAAAAAAAAAAAAAAAAAAAAAAAAAAAAAAAAAAAAAAAAAAAAAAAAAAAAAAAAAAAAAAAAAAAAAAAAAAAAAAAAAAAAAAAAAAAAAAAAAAAAAAAAAAAAAAAAAAAAAAAAAAAAAAAAAAAAAAAAAAAAAAAAAAAAAAAAAAAAAAAAAAAAAAAAAAAAAAAAAAAAAAAAAAAAAAAAAAAAAAAAAAAAAAAAAAAAAAAAAAAAAAAAAAAAAAAAAAAAAAAAAAAAAAAAAAAAAAAAAAAAAAAAAAAAAAAAAAAAAAAAAAAAAAAAAAAAAAAAAAAAAAAAAAAAAAAAAAAAAAAAAAAAAAAAAAAAAAAAAAAAAAAAAAAAAAAAAAAAAAAAAAAAAAAAAAAAAAAAAAAAAAAAAAAAAAAAAAAAAAAAAAAAAAAAAAAAAAAAAAAAAAAAAAAAAAAAAAAAAAAAAAAAAAAAAAAAAAAAAAAAAAAAAAAAAAAAAAAAAAAAAAAAAAAAAAAAAAAAAAAAAAAAAAAAAAAAAAAAAAAAAAAAAAAAAAAAAAAAAAAAAAAAAAAAAAAAAAAAAAAAAAAAAAAAAAAAAAAAAAAAAAAAAAAAAAAAAAAAAAAAAAAAAAAAAAAAAAAAAAAAAAAAAAAAAAAAAAAAAAAAAAAAAAAAAAAAAAAAAAAAAAAAAAAAAAAAAAAAAAAAAAAAAAAAAAAAAAAAAAAAAAAAAAAAAAAAAAAAAAAAAAAAAAAAAAAAAAAAAAAAAAAAAAAAAAAAAAAAAAAAAAAAAAAAAAAAAAAAAAAAAAAAAAAAAAAAAAAAAAAAAAAAAAAAAAAAAAAAAAAAAAAAAAAAAAAAAAAAAAAAAAAAAAAAAAAAAAAAAAAAAAAAAAAAAAAAAAAAAAAAAAAAAAAAAAAAAAAAAAAAAAAAAAAAAAAAAAAAAAAAAAAAAAAAAAAAAAAAAAAAAAAAAAAAAAAAAAAAAAAAAAAAAAAAAAAAAAAAAAAAAAAAAAAAAAAAAAAAAAAAAAAAAAAAAAAAAAAAAAAAAAAAAAAAAAAAAAAAAAAAAAAAAAAAAAAAAAAAAAAAAAAAAAAAAAAAAAAAAAAAAAAAAAAAAAAAAAAAAAAAAAAAAAAAAAAAAAAAAAAAAAAAAAAAAAAAAAAAAAAAAAAAAAAAAAAAAAAAAAAAAAAAAAAAAAAAAAAAAAAAAAAAAAAAAAAAAAAAAAAAAAAAAAAAAAAAAAAAAAAAAAAAAAAAAAAAAAAAAAAAAAAAAAAAAAAAAAAAAAAAAAAAAAAAAAAAAAAAAAAAAAAAAAAAAAAAAAAAAAAAAAAAAAAAAAAAAAAAAAAAAAAAAAAAAAAAAAAAAAAAAAAAAAAAAAAAAAAAAAAAAAAAAAAAAAAAAAAAAAAAAAAAAAAAAAAAAAAAAAAAAAAAAAAAAAAAAAAAAAAAAAAAAAAAAAAPZYQJZlV5ejgHm3RtzrNAKqyuwvORS4XSZez+wqM7fcd1XQU3Uv+l+pvca8S06nDXd3BDtqnBktEuq6lUXvCSGD/5E=</c2pa:manifest></metadata><title>TEK-LIM MULTISERVI — icono TKM (geometría exacta)</title><path fill="#F5B301" d="M256.00 0.00L512.00 159.61L512.00 330.97L256.00 490.58L0.00 330.97L0.00 159.61Z"></path><path fill="#111111" d="M256.00 29.31L487.13 173.42L487.13 317.16L256.00 461.27L24.87 317.16L24.87 173.42Z"></path><path fill="#F5B301" fill-rule="evenodd" d="M180.34 150.63L213.51 150.63L213.51 213.51L214.89 213.51L219.03 209.36L219.03 207.98L226.63 201.07L226.63 199.69L228.02 199.69L228.02 198.30L234.93 192.09L234.93 190.70L244.60 181.72L244.60 180.34L245.98 178.96L247.36 178.96L247.36 177.58L261.87 163.07L261.87 161.68L263.95 160.99L263.95 159.61L270.16 154.08L270.16 152.70L272.24 150.63L311.62 150.63L311.62 152.01L303.33 160.30L303.33 161.68L297.11 167.21L297.11 168.59L288.82 176.19L288.82 177.58L282.60 183.10L282.60 184.49L275.00 191.40L275.00 192.78L268.78 198.30L268.78 199.69L261.87 205.91L261.87 207.29L255.65 212.82L255.65 214.20L248.74 220.42L248.74 221.80L241.84 228.02L241.84 229.40L234.93 235.62L234.93 237.00L233.54 237.00L233.54 238.38L225.25 245.98L225.25 247.36L221.11 250.82L221.11 252.20L219.72 252.20L219.72 253.58L213.51 259.11L213.51 299.18L179.65 299.18L179.65 206.60L178.27 206.60L178.27 205.91L153.39 205.91L153.39 206.60L152.70 205.91L149.25 205.91L149.25 206.60L147.87 206.60L147.87 339.26L117.46 339.26L117.46 206.60L116.77 205.91L74.62 205.91L74.62 206.60L71.17 205.91L71.17 176.89L74.62 176.19L74.62 175.50L79.46 175.50L79.46 176.19L81.53 176.19L81.53 175.50L98.12 175.50L98.12 176.19L103.64 176.19L103.64 175.50L177.58 175.50L178.27 176.19L178.27 175.50L179.65 175.50L179.65 151.32L180.34 150.63ZM339.26 170.67L339.95 170.67L340.64 174.12L342.02 175.50L342.02 177.58L344.10 180.34L345.48 185.87L347.55 188.63L347.55 190.70L348.93 192.09L348.93 194.16L350.32 195.54L351.01 199.00L351.70 199.00L351.70 201.07L352.39 201.07L352.39 202.45L353.77 203.83L353.77 205.91L355.15 207.29L355.15 209.36L357.23 212.12L357.23 214.20L358.61 215.58L358.61 217.65L359.99 219.03L360.68 222.49L361.37 222.49L361.37 224.56L362.75 225.94L362.75 228.02L364.83 230.78L364.83 232.85L366.21 234.23L366.21 236.31L367.59 237.69L367.59 239.76L368.97 241.14L369.66 244.60L370.35 244.60L370.35 246.67L371.74 248.05L371.74 250.13L373.81 252.89L373.81 254.96L374.50 254.96L375.19 257.73L375.88 257.73L375.88 259.80L377.26 261.18L377.26 263.26L378.65 264.64L379.34 268.09L380.03 268.09L380.03 270.16L381.41 271.55L381.41 273.62L382.10 273.62L382.79 277.07L384.86 279.84L384.86 281.91L386.25 283.29L386.25 285.37L387.63 286.75L387.63 288.82L389.01 290.20L389.01 292.28L390.39 293.66L390.39 295.73L391.77 297.11L391.77 299.18L392.46 299.18L393.16 302.64L394.54 304.02L394.54 306.09L395.23 306.09L395.23 307.48L393.85 308.86L393.85 310.93L391.77 313.70L391.77 315.77L389.70 318.53L389.70 320.60L387.63 323.37L387.63 325.44L386.25 326.82L386.25 328.90L384.86 330.28L384.86 332.35L382.79 335.11L382.79 337.19L382.10 337.19L380.72 341.33L380.03 341.33L380.03 343.41L377.95 346.17L377.95 348.24L377.26 348.24L376.57 351.70L375.88 351.70L375.19 353.77L373.81 353.08L373.81 351.01L371.74 348.24L371.74 346.17L370.35 344.79L370.35 342.72L368.97 341.33L368.28 337.88L367.59 337.88L367.59 335.81L366.21 334.42L366.21 332.35L364.13 329.59L364.13 327.51L362.75 326.13L362.75 324.06L361.37 322.68L361.37 320.60L359.99 319.22L359.30 315.77L358.61 315.77L358.61 313.70L356.53 310.93L355.15 305.40L353.08 302.64L353.08 300.57L351.70 299.18L351.70 297.11L350.32 295.73L350.32 293.66L348.93 292.28L348.93 290.20L348.24 290.20L347.55 286.75L345.48 283.98L345.48 281.91L344.10 280.53L344.10 278.46L342.72 277.07L342.72 275.00L341.33 273.62L341.33 271.55L340.64 271.55L339.95 268.78L337.88 270.86L337.88 272.93L335.81 275.69L335.81 277.77L335.11 277.77L334.42 281.22L332.35 283.98L332.35 286.06L331.66 286.06L330.97 289.51L328.90 292.28L328.90 294.35L327.51 295.73L326.82 299.18L276.38 299.18L276.38 297.80L271.55 292.97L270.16 289.51L265.33 284.67L265.33 283.29L263.26 281.91L263.26 280.53L259.80 277.07L259.80 275.69L254.96 270.86L254.96 269.47L252.89 268.09L252.89 266.71L250.82 265.33L250.82 263.95L248.74 262.56L248.74 261.18L246.67 259.80L246.67 258.42L244.60 257.04L244.60 255.65L241.84 252.89L241.84 250.82L245.29 248.05L245.29 246.67L252.89 239.76L252.89 238.38L258.42 233.54L258.42 232.16L261.18 229.40L262.56 229.40L263.95 230.78L263.95 232.16L266.71 234.23L266.71 235.62L268.78 237.00L268.78 238.38L270.86 239.76L270.86 241.14L275.69 245.98L275.69 247.36L278.46 249.44L278.46 250.82L281.22 252.89L281.22 254.27L285.37 258.42L286.75 261.87L292.97 268.09L292.97 269.47L295.04 270.86L295.04 272.24L297.11 272.93L297.80 270.16L299.88 267.40L300.57 263.26L302.64 260.49L303.33 256.35L305.40 253.58L305.40 251.51L306.09 251.51L307.48 247.36L308.17 247.36L308.86 243.91L309.55 243.91L310.24 239.76L312.31 237.00L312.31 234.93L313.70 233.54L313.70 231.47L315.08 230.09L315.77 226.63L316.46 226.63L316.46 224.56L318.53 221.80L318.53 219.72L319.91 218.34L319.91 216.27L321.30 214.89L321.30 212.82L322.68 211.43L323.37 207.98L324.06 207.98L324.06 205.91L325.44 204.52L325.44 202.45L327.51 199.69L327.51 197.61L329.59 194.85L329.59 192.78L331.66 190.01L332.35 185.87L333.73 184.49L333.73 182.41L334.42 182.41L335.81 178.27L336.50 178.27L336.50 176.19L337.19 176.19L337.88 172.74L338.57 172.74L339.26 170.67ZM410.43 171.36L412.50 173.43L413.19 177.58L413.88 177.58L413.88 178.96L415.27 180.34L415.27 182.41L416.65 183.79L416.65 185.87L418.72 188.63L419.41 192.78L421.48 195.54L421.48 197.61L423.56 200.38L423.56 202.45L424.25 202.45L424.94 205.91L426.32 207.29L426.32 209.36L427.70 210.74L427.70 212.82L428.39 212.82L428.39 214.20L429.78 215.58L429.78 217.65L431.16 219.03L431.16 221.11L433.23 223.87L433.23 225.94L434.61 227.33L434.61 229.40L435.99 230.78L435.99 232.85L437.38 234.23L438.07 237.69L438.76 237.69L438.76 239.76L440.14 241.14L440.14 243.22L442.21 245.98L442.21 248.05L443.60 249.44L443.60 251.51L444.98 252.89L445.67 256.35L446.36 256.35L446.36 258.42L447.74 259.80L447.74 261.87L449.81 264.64L449.81 266.71L451.20 268.09L451.20 270.16L452.58 271.55L453.27 275.00L453.96 275.00L453.96 277.07L456.03 279.84L456.03 281.91L457.41 283.29L459.49 290.89L460.18 290.89L460.18 292.28L461.56 293.66L461.56 295.73L462.94 297.11L462.94 299.18L423.56 299.18L423.56 297.80L421.48 295.04L421.48 292.97L419.41 290.20L419.41 288.13L418.72 288.13L418.72 286.06L417.34 284.67L416.65 281.22L415.96 281.22L415.96 279.15L413.88 276.38L413.88 274.31L412.50 272.93L411.81 269.47L411.12 269.47L411.12 267.40L409.05 264.64L408.36 260.49L406.28 257.73L404.90 252.20L402.83 249.44L402.14 245.29L400.06 242.53L400.06 240.45L398.68 239.07L398.68 237.00L397.30 235.62L396.61 232.16L395.92 232.16L395.92 230.09L394.54 228.71L394.54 226.63L393.85 226.63L393.85 225.25L392.46 223.87L392.46 221.80L391.08 220.42L391.08 216.27L392.46 214.89L393.85 209.36L394.54 209.36L394.54 207.98L395.92 206.60L395.92 204.52L397.30 203.14L397.30 201.07L398.68 199.69L398.68 197.61L400.76 194.85L400.76 192.78L402.83 190.01L404.21 184.49L406.28 181.72L406.28 179.65L406.97 179.65L407.67 176.19L408.36 176.19L410.43 171.36Z"></path></svg>